<?xml version="1.0" encoding="UTF-8" standalone="no"?><!DOCTYPE svg PUBLIC "-//W3C//DTD SVG 1.1//EN" "http://www.w3.org/Graphics/SVG/1.1/DTD/svg11.dtd"><svg width="100%" height="100%" viewBox="0 0 15 9" version="1.1" xmlns="http://www.w3.org/2000/svg" xmlns:xlink="http://www.w3.org/1999/xlink" xml:space="preserve" xmlns:serif="http://www.serif.com/" style="fill-rule:evenodd;clip-rule:evenodd;stroke-linejoin:round;stroke-miterlimit:1.41421;"><g><path d="M7.431,5.847l7.182,-3.237l-7.307,-2.61l-7.306,2.435l7.431,3.412Z" style="fill:#ffde00;fill-rule:nonzero;"/><path d="M13.18,5.886l0,-2.086l0.369,-0.165l0,2.257c0.286,0.124 0.497,0.511 0.497,0.975c0,0.563 -0.308,1.019 -0.688,1.019c-0.38,0 -0.689,-0.456 -0.689,-1.019c0,-0.472 0.218,-0.865 0.511,-0.981" style="fill:#ffde00;fill-rule:nonzero;"/><path d="M3.083,6.39c-0.123,1.629 1.475,2.09 1.475,2.09c0,0 1.396,0.307 2.733,0.307c1.336,0 2.738,-0.307 2.738,-0.307c0,0 1.506,-0.277 1.475,-2.09l0,-1.076c0,-0.25 -0.062,-0.486 -0.172,-0.693c-0.959,0.469 -3.907,1.759 -3.907,1.759c0,0 -3.281,-1.515 -4.109,-1.861c-0.147,0.23 -0.233,0.503 -0.233,0.795l0,1.076Z" style="fill:#ffde00;fill-rule:nonzero;"/></g></svg>