<?xml version="1.0" encoding="UTF-8" standalone="no"?><!DOCTYPE svg PUBLIC "-//W3C//DTD SVG 1.1//EN" "http://www.w3.org/Graphics/SVG/1.1/DTD/svg11.dtd"><svg width="100%" height="100%" viewBox="0 0 8 13" version="1.1" xmlns="http://www.w3.org/2000/svg" xmlns:xlink="http://www.w3.org/1999/xlink" xml:space="preserve" xmlns:serif="http://www.serif.com/" style="fill-rule:evenodd;clip-rule:evenodd;stroke-linejoin:round;stroke-miterlimit:1.41421;"><g><rect x="0.798" y="3.294" width="5.813" height="8.389" style="fill:#ffde00;"/><path d="M7.246,11.981c0,-0.076 -0.031,-0.15 -0.086,-0.206c-0.054,-0.054 -0.128,-0.085 -0.206,-0.085c-1.148,0 -5.352,0 -6.5,0c-0.077,0 -0.151,0.031 -0.206,0.085c-0.054,0.056 -0.085,0.13 -0.085,0.206c0,0.004 0,0.008 0,0.01c0,0.078 0.031,0.152 0.085,0.206c0.055,0.056 0.129,0.086 0.206,0.086c1.148,0 5.352,0 6.5,0c0.078,0 0.152,-0.03 0.206,-0.086c0.055,-0.054 0.086,-0.128 0.086,-0.206c0,-0.002 0,-0.006 0,-0.01Z" style="fill:#ffde00;"/><path d="M7.342,2.561l0.067,0l0,0.783l-7.399,0l0,-0.768l-0.01,0l0.01,-0.007l0,-0.008l0.011,0l3.661,-2.561l3.66,2.561Z" style="fill:#ffde00;"/></g></svg>