<?xml version="1.0" encoding="UTF-8" standalone="no"?><!DOCTYPE svg PUBLIC "-//W3C//DTD SVG 1.1//EN" "http://www.w3.org/Graphics/SVG/1.1/DTD/svg11.dtd"><svg width="100%" height="100%" viewBox="0 0 12 8" version="1.1" xmlns="http://www.w3.org/2000/svg" xmlns:xlink="http://www.w3.org/1999/xlink" xml:space="preserve" xmlns:serif="http://www.serif.com/" style="fill-rule:evenodd;clip-rule:evenodd;stroke-linejoin:round;stroke-miterlimit:1.41421;"><path d="M11.519,7.179l-11.291,0l3.362,-3.361l0.946,0.946c0.359,0.359 0.848,0.555 1.338,0.555c0.522,0 0.979,-0.196 1.338,-0.555l0.946,-0.946l3.361,3.361Zm-3.133,-3.589l3.362,-3.362l0,6.755l-3.362,-3.393Zm-5.025,0l-3.361,3.361l0,-6.723l3.361,3.362Zm3.622,0.946c-0.293,0.294 -0.685,0.457 -1.109,0.457c-0.424,0 -0.816,-0.163 -1.11,-0.457l-4.536,-4.536l11.258,0l-4.503,4.536Z" style="fill:#ffde00;"/></svg>