<?xml version="1.0" encoding="UTF-8" standalone="no"?><!DOCTYPE svg PUBLIC "-//W3C//DTD SVG 1.1//EN" "http://www.w3.org/Graphics/SVG/1.1/DTD/svg11.dtd"><svg width="100%" height="100%" viewBox="0 0 10 10" version="1.1" xmlns="http://www.w3.org/2000/svg" xmlns:xlink="http://www.w3.org/1999/xlink" xml:space="preserve" xmlns:serif="http://www.serif.com/" style="fill-rule:evenodd;clip-rule:evenodd;stroke-linejoin:round;stroke-miterlimit:1.41421;"><path id="Cart-Icon" serif:id="Cart Icon" d="M9.407,9.327c-0.12,0.151 -0.282,0.229 -0.471,0.229l-8.323,0c-0.189,0 -0.35,-0.078 -0.471,-0.229c-0.121,-0.151 -0.165,-0.33 -0.131,-0.523l0.734,-4.707c0.055,-0.304 0.304,-0.518 0.602,-0.518l1.039,0l0,-1.19c0,-1.319 1.069,-2.389 2.389,-2.389c1.319,0 2.389,1.07 2.389,2.389l0,1.19l1.038,0c0.299,0 0.547,0.214 0.602,0.518l0.734,4.707c0.035,0.193 -0.01,0.372 -0.131,0.523Zm-7.021,-5.743l0,0.906c-0.237,0.138 -0.399,0.392 -0.399,0.686c0,0.44 0.357,0.797 0.797,0.797c0.44,0 0.796,-0.357 0.796,-0.797c0,-0.294 -0.161,-0.548 -0.398,-0.686l0,-0.906l-0.796,0Zm3.981,-1.195c0,-0.879 -0.713,-1.592 -1.592,-1.592c-0.88,0 -1.593,0.713 -1.593,1.592l0,1.19l3.185,0l0,-1.19Zm0.797,2.101l0,-0.906l-0.797,0l0,0.906c-0.237,0.138 -0.398,0.392 -0.398,0.686c0,0.44 0.357,0.797 0.796,0.797c0.44,0 0.797,-0.357 0.797,-0.797c0,-0.294 -0.161,-0.548 -0.398,-0.686Z" style="fill:#ffde00;"/></svg>