<?xml version="1.0" encoding="UTF-8" standalone="no"?><!DOCTYPE svg PUBLIC "-//W3C//DTD SVG 1.1//EN" "http://www.w3.org/Graphics/SVG/1.1/DTD/svg11.dtd"><svg width="100%" height="100%" viewBox="0 0 10 11" version="1.1" xmlns="http://www.w3.org/2000/svg" xmlns:xlink="http://www.w3.org/1999/xlink" xml:space="preserve" xmlns:serif="http://www.serif.com/" style="fill-rule:evenodd;clip-rule:evenodd;stroke-linejoin:round;stroke-miterlimit:1.41421;"><path id="Book-Icon" serif:id="Book Icon" d="M9.204,10.275l-7.706,0c-0.354,0 -0.642,-0.288 -0.642,-0.643l0,-1.07l0.428,0c0.473,0 0.857,-0.383 0.857,-0.856c0,-0.473 -0.384,-0.856 -0.857,-0.856l-0.428,0l0,-0.856l0.428,0c0.473,0 0.857,-0.384 0.857,-0.857c0,-0.472 -0.384,-0.856 -0.857,-0.856l-0.428,0l0,-0.856l0.428,0c0.473,0 0.857,-0.383 0.857,-0.856c0,-0.473 -0.384,-0.857 -0.857,-0.857l-0.428,0l0,-1.07c0,-0.354 0.288,-0.642 0.642,-0.642l4.496,0l0,4.709l1.284,-1.284l1.284,1.284l0,-4.709l0.642,0c0.355,0 0.642,0.288 0.642,0.642l0,8.99c0,0.355 -0.287,0.643 -0.642,0.643Zm-7.492,-7.706c0,0.236 -0.191,0.428 -0.428,0.428l-0.856,0c-0.236,0 -0.428,-0.192 -0.428,-0.428c0,-0.237 0.192,-0.428 0.428,-0.428l0.856,0c0.237,0 0.428,0.191 0.428,0.428Zm-1.284,2.14l0.856,0c0.237,0 0.428,0.192 0.428,0.428c0,0.237 -0.191,0.428 -0.428,0.428l-0.856,0c-0.236,0 -0.428,-0.191 -0.428,-0.428c0,-0.236 0.192,-0.428 0.428,-0.428Zm0,2.569l0.856,0c0.237,0 0.428,0.192 0.428,0.428c0,0.236 -0.191,0.428 -0.428,0.428l-0.856,0c-0.236,0 -0.428,-0.192 -0.428,-0.428c0,-0.236 0.192,-0.428 0.428,-0.428Z" style="fill:#ffde00;"/></svg>