<?xml version="1.0" encoding="UTF-8" standalone="no"?><!DOCTYPE svg PUBLIC "-//W3C//DTD SVG 1.1//EN" "http://www.w3.org/Graphics/SVG/1.1/DTD/svg11.dtd"><svg width="100%" height="100%" viewBox="0 0 9 10" version="1.1" xmlns="http://www.w3.org/2000/svg" xmlns:xlink="http://www.w3.org/1999/xlink" xml:space="preserve" xmlns:serif="http://www.serif.com/" style="fill-rule:evenodd;clip-rule:evenodd;stroke-linejoin:round;stroke-miterlimit:1.41421;"><path id="Phone" d="M8.328,1.391c-0.088,-0.642 -0.88,-1.187 -1.039,-1.271l-0.047,-0.036l-0.065,-0.012c-2.173,-0.609 -4.846,2.818 -5.167,3.241c-0.251,0.33 -2.255,3.095 -1.985,5.062c0.043,0.311 0.142,0.572 0.279,0.806l0.03,0.059l0.047,0.036c0.17,0.166 1.126,0.984 1.826,0.551c0.273,-0.164 1.211,-1.327 1.242,-2.639l0.009,-0.086l-0.032,-0.08c-0.029,-0.059 -0.172,-0.483 -0.671,-1.047c0.075,-0.221 0.308,-0.675 0.877,-1.45c0.571,-0.753 0.946,-1.1 1.139,-1.232c0.675,0.308 1.124,0.352 1.168,0.367l0.086,0.009l0.08,-0.032c1.255,-0.383 2.099,-1.617 2.204,-1.927c0.03,-0.088 0.036,-0.195 0.019,-0.319Z" style="fill:#ffde00;fill-rule:nonzero;"/></svg>