<?xml version="1.0" encoding="UTF-8" standalone="no"?><!DOCTYPE svg PUBLIC "-//W3C//DTD SVG 1.1//EN" "http://www.w3.org/Graphics/SVG/1.1/DTD/svg11.dtd"><svg width="100%" height="100%" viewBox="0 0 14 11" version="1.1" xmlns="http://www.w3.org/2000/svg" xmlns:xlink="http://www.w3.org/1999/xlink" xml:space="preserve" xmlns:serif="http://www.serif.com/" style="fill-rule:evenodd;clip-rule:evenodd;stroke-linejoin:round;stroke-miterlimit:1.41421;"><g><path d="M12.953,5.377l-6.111,-5.209c-0.058,-0.049 -0.114,-0.089 -0.164,-0.118l-0.034,-0.041c-0.01,-0.012 -0.031,-0.012 -0.061,-0.003c-0.029,-0.009 -0.05,-0.009 -0.06,0.003l-0.035,0.041c-0.049,0.029 -0.106,0.069 -0.163,0.118l-6.111,5.209c-0.146,0.123 -0.239,0.253 -0.208,0.289l0.773,0.906c0.031,0.037 0.173,-0.035 0.318,-0.158l5.486,-4.675l5.486,4.675c0.145,0.123 0.288,0.195 0.319,0.158l0.772,-0.906c0.031,-0.036 -0.061,-0.166 -0.207,-0.289" style="fill:#ffdd06;fill-rule:nonzero;"/><path d="M5.712,7.785c-0.12,0 -0.218,0.097 -0.218,0.217l0,2.903l-1.419,0.007l-2.019,-0.025c-0.213,0 -0.333,-0.119 -0.333,-0.329l0,-3.988c0,-0.21 4.656,-4.085 4.656,-4.085c0.068,-0.062 0.149,-0.094 0.215,-0.092c0.067,-0.002 0.147,0.03 0.215,0.092c0,0 4.63,3.87 4.63,4.08l0.004,3.993c0,0.21 -0.158,0.329 -0.371,0.329l-1.996,0l-1.404,0.007l0,-2.892c0,-0.12 -0.097,-0.217 -0.218,-0.217l-1.742,0Zm3.925,-2.304l-1.484,0c-0.102,0 -0.185,0.083 -0.185,0.185l0,1.484c0,0.102 0.083,0.185 0.185,0.185l1.484,0c0.102,0 0.185,-0.083 0.185,-0.185l0,-1.484c0,-0.102 -0.083,-0.185 -0.185,-0.185Zm-4.624,0l-1.483,0c-0.103,0 -0.186,0.083 -0.186,0.185l0,1.484c0,0.102 0.083,0.185 0.186,0.185l1.483,0c0.103,0 0.186,-0.083 0.186,-0.185l0,-1.484c0,-0.102 -0.083,-0.185 -0.186,-0.185Z" style="fill:#ffdd06;fill-rule:nonzero;"/><path d="M4.584,1.262c0,-0.366 -0.212,-0.663 -0.473,-0.663l-0.947,0c-0.261,0 -0.473,0.297 -0.473,0.663l0,2.165c0,0.366 0.212,0.663 0.473,0.663l1.42,-1.669l0,-1.159Z" style="fill:#ffde00;"/></g></svg>