<?xml version="1.0" encoding="UTF-8" standalone="no"?><!DOCTYPE svg PUBLIC "-//W3C//DTD SVG 1.1//EN" "http://www.w3.org/Graphics/SVG/1.1/DTD/svg11.dtd"><svg width="100%" height="100%" viewBox="0 0 7 19" version="1.1" xmlns="http://www.w3.org/2000/svg" xmlns:xlink="http://www.w3.org/1999/xlink" xml:space="preserve" xmlns:serif="http://www.serif.com/" style="fill-rule:evenodd;clip-rule:evenodd;stroke-linejoin:round;stroke-miterlimit:1.41421;"><g><rect x="2.646" y="0" width="1.707" height="1.919" style="fill:#ffde00;"/><path d="M5.949,1.271l0,3.661l-4.899,0l0,-3.661l4.899,0Zm-3.416,0.357l-0.367,0l0,2.976l0.367,0l0,-2.976Zm1.151,0l-0.368,0l0,2.976l0.368,0l0,-2.976Zm1.15,0l-0.368,0l0,2.976l0.368,0l0,-2.976Z" style="fill:#ffde00;"/><path d="M7,18.617l-7,0l0,-13.953l7,0l0,13.953Zm-4.818,-2.203l-1.472,0l0,1.472l1.472,0l0,-1.472Zm2.054,0l-1.472,0l0,1.472l1.472,0l0,-1.472Zm2.054,0l-1.473,0l0,1.472l1.473,0l0,-1.472Zm-4.108,-2.227l-1.472,0l0,1.472l1.472,0l0,-1.472Zm2.054,0l-1.472,0l0,1.472l1.472,0l0,-1.472Zm2.054,0l-1.473,0l0,1.472l1.473,0l0,-1.472Zm-4.108,-2.228l-1.472,0l0,1.473l1.472,0l0,-1.473Zm2.054,0l-1.472,0l0,1.473l1.472,0l0,-1.473Zm2.054,0l-1.473,0l0,1.473l1.473,0l0,-1.473Zm-4.108,-2.227l-1.472,0l0,1.472l1.472,0l0,-1.472Zm2.054,0l-1.472,0l0,1.472l1.472,0l0,-1.472Zm2.054,0l-1.473,0l0,1.472l1.473,0l0,-1.472Zm0,-2.228l-1.473,0l0,1.473l1.473,0l0,-1.473Zm-4.108,0l-1.472,0l0,1.473l1.472,0l0,-1.473Zm2.054,0l-1.472,0l0,1.473l1.472,0l0,-1.473Zm2.054,-2.227l-1.473,0l0,1.472l1.473,0l0,-1.472Zm-2.054,0l-1.472,0l0,1.472l1.472,0l0,-1.472Zm-2.054,0l-1.472,0l0,1.472l1.472,0l0,-1.472Z" style="fill:#ffde00;"/></g></svg>