<?xml version="1.0" encoding="UTF-8" standalone="no"?><!DOCTYPE svg PUBLIC "-//W3C//DTD SVG 1.1//EN" "http://www.w3.org/Graphics/SVG/1.1/DTD/svg11.dtd"><svg width="100%" height="100%" viewBox="0 0 296 85" version="1.1" xmlns="http://www.w3.org/2000/svg" xmlns:xlink="http://www.w3.org/1999/xlink" xml:space="preserve" xmlns:serif="http://www.serif.com/" style="fill-rule:evenodd;clip-rule:evenodd;stroke-linejoin:round;stroke-miterlimit:1.41421;"><rect id="rekolnet-logo" serif:id="rekolnet logo" x="0" y="0" width="295.68" height="84.24" style="fill:none;"/><g><g><path d="M195.777,14.87l-12.702,-13.899l-125.975,19.215l7.178,48.029l136.009,-20.745l-4.51,-32.6Z" style="fill:#ffde00;"/><path d="M195.902,14.632l-12.535,-13.623l-0.492,13.135l13.027,0.488Z" style="fill:#a89a0c;"/></g><g transform="matrix(1.37282,-1.06354e-16,1.89767e-16,1.37282,-518.469,-842.773)"><path d="M405.574,654.477c-0.268,0.269 -0.833,0.427 -1.694,0.476c-0.86,0.049 -1.919,0.037 -3.176,-0.036c-1.258,-0.074 -1.929,-0.11 -2.015,-0.11c-0.83,0 -1.428,-0.013 -1.794,-0.037l-1.831,0c-0.269,-0.085 -0.495,-0.485 -0.678,-1.199c-0.183,-0.714 -0.363,-1.74 -0.54,-3.076c-0.177,-1.337 -0.271,-2.048 -0.284,-2.134c-0.048,-1.208 -0.244,-2.005 -0.586,-2.389c-0.341,-0.385 -0.964,-0.577 -1.867,-0.577l-0.806,0l0,8.936c-0.024,0.146 -0.152,0.268 -0.384,0.366c-0.232,0.097 -0.565,0.162 -0.998,0.192c-0.434,0.031 -0.818,0.049 -1.154,0.055c-0.336,0.006 -0.778,0.003 -1.327,-0.009c-0.55,-0.012 -0.885,-0.018 -1.007,-0.018l-2.637,0c-1.489,0 -2.612,0.012 -3.369,0.036c-0.171,-0.073 -0.342,-0.159 -0.513,-0.256l0,-27.32c0,-0.341 0.488,-0.512 1.465,-0.512l15.967,0c2.771,0.073 4.879,0.732 6.326,1.977c1.446,1.245 2.17,3.003 2.17,5.274c0,2.954 -1.49,5.114 -4.468,6.482c0.549,0.171 1.044,0.409 1.483,0.714c0.44,0.305 0.806,0.631 1.099,0.979c0.293,0.348 0.549,0.766 0.769,1.255c0.219,0.488 0.39,0.946 0.512,1.373c0.123,0.427 0.229,0.934 0.321,1.52c0.091,0.586 0.156,1.092 0.192,1.52c0.037,0.427 0.083,0.936 0.137,1.528c0.055,0.592 0.101,1.059 0.138,1.401l0,1.612c0.036,0.195 0.149,0.469 0.339,0.823c0.189,0.354 0.308,0.617 0.357,0.788c0,0.244 -0.049,0.366 -0.147,0.366Zm-15.381,-19.849c0,0.733 0.006,1.276 0.019,1.63c0.012,0.354 0.079,0.818 0.201,1.392c0.122,0.573 0.305,0.982 0.549,1.226c0.513,0 0.998,-0.054 1.456,-0.164c0.458,-0.11 0.9,-0.287 1.328,-0.531c0.427,-0.244 0.766,-0.608 1.016,-1.09c0.25,-0.482 0.375,-1.059 0.375,-1.73c0,-0.379 -0.067,-0.711 -0.201,-0.998c-0.135,-0.287 -0.33,-0.516 -0.586,-0.687c-0.257,-0.171 -0.51,-0.308 -0.76,-0.412c-0.25,-0.103 -0.556,-0.177 -0.916,-0.219c-0.36,-0.043 -0.644,-0.071 -0.851,-0.083c-0.208,-0.012 -0.458,-0.018 -0.751,-0.018l-0.439,0c-0.183,0.085 -0.302,0.256 -0.357,0.513c-0.055,0.256 -0.083,0.647 -0.083,1.171Z" style="fill:#04955d;fill-rule:nonzero;"/><path d="M407.405,653.745l0,-0.696c0,-2.088 0.025,-5.17 0.073,-9.247c0.049,-4.077 0.074,-7.159 0.074,-9.247l0,-7.58l21.313,0l0,6.573c0,0.049 -0.006,0.137 -0.018,0.266c-0.012,0.128 -0.034,0.216 -0.064,0.265c-0.031,0.049 -0.073,0.119 -0.128,0.211c-0.055,0.091 -0.119,0.155 -0.193,0.192c-0.073,0.037 -0.171,0.07 -0.293,0.101c-0.122,0.03 -0.256,0.045 -0.402,0.045l-0.513,0c-3.162,0 -6.043,-0.048 -8.643,-0.146c-0.024,0.195 -0.064,0.497 -0.119,0.906c-0.055,0.409 -0.097,0.769 -0.128,1.081c-0.03,0.311 -0.046,0.613 -0.046,0.906l8.716,0c0.366,0 0.61,0.049 0.733,0.146c0.122,0.098 0.183,0.257 0.183,0.477c0,0.061 -0.006,0.158 -0.019,0.293c-0.012,0.134 -0.018,0.231 -0.018,0.293c0,0.585 0.018,1.452 0.055,2.6c0.037,1.147 0.055,2.014 0.055,2.6c-0.037,0.244 -0.134,0.366 -0.293,0.366c-0.073,0 -0.134,-0.025 -0.183,-0.073c-3.858,0.195 -6.714,0.293 -8.57,0.293l-0.476,0l0,2.636c1.087,0 2.658,-0.048 4.715,-0.146c2.057,-0.098 3.598,-0.147 4.624,-0.147c0.805,0 1.269,0.171 1.391,0.513l0,1.392c0,0.586 0.013,1.452 0.037,2.6c0.024,1.147 0.037,2.014 0.037,2.6c0,0.61 -0.245,0.915 -0.733,0.915c-0.635,0 -1.611,-0.006 -2.93,-0.018c-1.318,-0.012 -2.319,-0.018 -3.002,-0.018c-1.758,0 -4.273,0.046 -7.544,0.137c-3.272,0.092 -5.64,0.144 -7.105,0.156l-0.513,-0.586c-0.048,-0.342 -0.073,-0.562 -0.073,-0.659Z" style="fill:#04955d;fill-rule:nonzero;"/><path d="M432.564,654.99c-0.269,0 -0.473,-0.028 -0.614,-0.083c-0.14,-0.055 -0.231,-0.119 -0.274,-0.192c-0.043,-0.073 -0.113,-0.214 -0.211,-0.421l0,-26.038c0,-0.268 0.003,-0.464 0.009,-0.586c0.007,-0.122 0.028,-0.265 0.064,-0.43c0.037,-0.165 0.095,-0.281 0.174,-0.348c0.08,-0.067 0.193,-0.125 0.339,-0.174c0.147,-0.049 0.33,-0.073 0.55,-0.073l7.507,0c1.758,0 2.637,0.22 2.637,0.659l0,0.037c-0.049,4.541 -0.074,7.922 -0.074,10.144l5.146,-10.712l3.79,0.019c5.176,0 7.764,0.122 7.764,0.366c0,0.049 -0.025,0.073 -0.074,0.073c-2.368,4.272 -4.773,8.52 -7.214,12.744l0,0.513l0.751,0.476l7.653,13.165c0,0.195 -0.14,0.409 -0.421,0.641l-11.755,0l-5.237,-10.217c-0.073,0.671 -0.128,1.648 -0.165,2.929c-0.036,1.282 -0.067,2.124 -0.091,2.527l0,4.322c-0.086,0.439 -0.818,0.659 -2.197,0.659l-8.057,0Z" style="fill:#04955d;fill-rule:nonzero;"/><path d="M459.004,640.634l0,-2.014c0.122,-1.709 0.495,-3.268 1.117,-4.678c0.623,-1.41 1.413,-2.597 2.371,-3.562c0.959,-0.964 2.067,-1.779 3.324,-2.444c1.257,-0.665 2.572,-1.151 3.946,-1.456c1.373,-0.305 2.792,-0.458 4.257,-0.458c0.806,0 1.645,0.068 2.518,0.202c0.872,0.134 1.797,0.348 2.774,0.641c0.976,0.293 1.913,0.723 2.81,1.291c0.898,0.567 1.639,1.236 2.225,2.005c1.209,1.477 2.084,3.024 2.628,4.641c0.543,1.618 0.814,3.415 0.814,5.393c0.037,4.126 -0.866,7.446 -2.709,9.961l-0.806,1.098c-0.708,0.977 -1.721,1.792 -3.04,2.445c-1.318,0.653 -2.636,1.105 -3.955,1.355c-1.318,0.25 -2.649,0.375 -3.991,0.375c-1.575,0 -3.028,-0.158 -4.358,-0.476c-1.331,-0.317 -2.478,-0.744 -3.443,-1.282c-0.964,-0.537 -1.825,-1.19 -2.582,-1.959c-0.756,-0.769 -1.376,-1.581 -1.858,-2.435c-0.482,-0.855 -0.879,-1.782 -1.19,-2.783c-0.312,-1.001 -0.531,-1.978 -0.659,-2.93c-0.129,-0.952 -0.193,-1.929 -0.193,-2.93Zm14.576,-7.251c-0.501,0 -0.95,0.116 -1.346,0.348c-0.397,0.232 -0.721,0.513 -0.971,0.842c-0.25,0.33 -0.467,0.773 -0.65,1.328c-0.183,0.555 -0.317,1.056 -0.403,1.501c-0.085,0.446 -0.152,1.008 -0.201,1.685c-0.049,0.678 -0.076,1.202 -0.082,1.575c-0.007,0.372 -0.01,0.851 -0.01,1.437c0,0.562 0.022,1.096 0.064,1.602c0.043,0.507 0.135,1.044 0.275,1.612c0.141,0.567 0.324,1.062 0.549,1.483c0.226,0.421 0.538,0.775 0.934,1.062c0.397,0.287 0.852,0.442 1.364,0.467c0.538,0 1.014,-0.089 1.429,-0.266c0.415,-0.177 0.763,-0.403 1.043,-0.677c0.281,-0.275 0.519,-0.644 0.714,-1.108c0.196,-0.464 0.345,-0.909 0.449,-1.337c0.104,-0.427 0.183,-0.958 0.238,-1.593c0.055,-0.635 0.089,-1.181 0.101,-1.639c0.012,-0.457 0.018,-1.034 0.018,-1.73c0,-0.513 -0.015,-0.989 -0.046,-1.428c-0.03,-0.44 -0.082,-0.928 -0.155,-1.465c-0.074,-0.537 -0.196,-1.01 -0.366,-1.419c-0.171,-0.409 -0.379,-0.793 -0.623,-1.154c-0.244,-0.36 -0.565,-0.637 -0.961,-0.833c-0.397,-0.195 -0.852,-0.293 -1.364,-0.293Z" style="fill:#04955d;fill-rule:nonzero;"/><path d="M490.535,629.941c0,-1.99 0.208,-3.101 0.623,-3.333c0.122,0.025 0.293,0.037 0.512,0.037l0.586,0c0.379,0 1.001,-0.012 1.868,-0.037c0.867,-0.024 1.526,-0.036 1.977,-0.036c1.734,0 3.135,0.07 4.203,0.21c1.068,0.141 1.669,0.4 1.803,0.779l-0.219,18.896l0.402,0c0.977,-0.049 1.661,-0.07 2.051,-0.064c0.391,0.006 1.108,0.03 2.152,0.073c1.043,0.043 2.047,0.064 3.012,0.064c0.793,0 1.382,0.046 1.767,0.138c0.384,0.091 0.577,0.277 0.577,0.558l0,7.031c-0.159,0.44 -2.881,0.66 -8.167,0.66l-12.671,0c-0.293,-0.428 -0.439,-1.111 -0.439,-2.051l0,-5.2c0,-1.526 0.012,-3.785 0.036,-6.775c0.025,-2.991 0.037,-5.249 0.037,-6.775c0,-0.281 -0.018,-0.904 -0.055,-1.868c-0.037,-0.964 -0.055,-1.733 -0.055,-2.307Z" style="fill:#04955d;fill-rule:nonzero;"/><path d="M513.277,654.477l0,-8.276c-0.025,-3.028 0.073,-8.802 0.293,-17.322l0,-1.502c0,-0.268 0.049,-0.427 0.146,-0.476l12.598,0c0.122,0 0.369,0.464 0.741,1.392c0.373,0.928 0.824,2.121 1.355,3.58c0.531,1.458 0.907,2.462 1.127,3.012l2.563,6.701l0,-7.104c0,-0.61 0.015,-1.73 0.046,-3.36c0.03,-1.63 0.039,-2.902 0.027,-3.818c0,-0.342 0.977,-0.512 2.93,-0.512c0.61,0 1.446,0.012 2.508,0.036c1.063,0.025 1.716,0.037 1.96,0.037l1.391,0c0.196,0 0.293,0.036 0.293,0.11c0.074,3.393 0.11,8.252 0.11,14.575l0,12.707c-0.085,0.318 -0.476,0.476 -1.172,0.476l-0.476,0c-0.635,0 -1.568,0.013 -2.801,0.037c-1.233,0.024 -2.167,0.037 -2.802,0.037l-5.383,0c-0.171,-0.061 -0.525,-0.83 -1.062,-2.307c-0.574,-1.6 -1.428,-3.913 -2.564,-6.94c-1.135,-3.028 -1.77,-4.718 -1.904,-5.072c0,0.72 -0.006,1.794 -0.018,3.222c-0.012,1.429 -0.019,2.503 -0.019,3.223c0,0.537 0.013,1.343 0.037,2.417c0.025,1.074 0.037,1.88 0.037,2.417l0,2.307c0,0.562 -0.244,0.843 -0.733,0.843l-8.423,0l-0.805,-0.44Zm27.978,-27.539l0,0.073l0,-0.073Z" style="fill:#04955d;fill-rule:nonzero;"/><path d="M543.601,653.745l0,-0.696c0,-2.088 0.024,-5.17 0.073,-9.247c0.049,-4.077 0.073,-7.159 0.073,-9.247l0,-7.58l21.313,0l0,6.573c0,0.049 -0.006,0.137 -0.018,0.266c-0.012,0.128 -0.033,0.216 -0.064,0.265c-0.03,0.049 -0.073,0.119 -0.128,0.211c-0.055,0.091 -0.119,0.155 -0.192,0.192c-0.074,0.037 -0.171,0.07 -0.293,0.101c-0.122,0.03 -0.257,0.045 -0.403,0.045l-0.513,0c-3.161,0 -6.042,-0.048 -8.642,-0.146c-0.025,0.195 -0.065,0.497 -0.119,0.906c-0.055,0.409 -0.098,0.769 -0.129,1.081c-0.03,0.311 -0.045,0.613 -0.045,0.906l8.715,0c0.367,0 0.611,0.049 0.733,0.146c0.122,0.098 0.183,0.257 0.183,0.477c0,0.061 -0.006,0.158 -0.018,0.293c-0.013,0.134 -0.019,0.231 -0.019,0.293c0,0.585 0.019,1.452 0.055,2.6c0.037,1.147 0.055,2.014 0.055,2.6c-0.036,0.244 -0.134,0.366 -0.293,0.366c-0.073,0 -0.134,-0.025 -0.183,-0.073c-3.857,0.195 -6.714,0.293 -8.569,0.293l-0.476,0l0,2.636c1.086,0 2.658,-0.048 4.715,-0.146c2.057,-0.098 3.598,-0.147 4.623,-0.147c0.806,0 1.27,0.171 1.392,0.513l0,1.392c0,0.586 0.012,1.452 0.036,2.6c0.025,1.147 0.037,2.014 0.037,2.6c0,0.61 -0.244,0.915 -0.733,0.915c-0.634,0 -1.611,-0.006 -2.929,-0.018c-1.319,-0.012 -2.32,-0.018 -3.003,-0.018c-1.758,0 -4.273,0.046 -7.544,0.137c-3.272,0.092 -5.64,0.144 -7.105,0.156l-0.512,-0.586c-0.049,-0.342 -0.073,-0.562 -0.073,-0.659Z" style="fill:#04955d;fill-rule:nonzero;"/><path d="M566.662,632.468c0,-0.22 0.012,-0.546 0.036,-0.98c0.025,-0.433 0.037,-0.729 0.037,-0.888c0,-0.061 -0.012,-0.281 -0.037,-0.659c-0.024,-0.378 -0.036,-0.708 -0.036,-0.989c0,-1.294 0.122,-1.941 0.366,-1.941c0.097,0 0.183,0.012 0.256,0.037c2.551,0 6.332,-0.031 11.343,-0.092c5.011,-0.061 8.762,-0.091 11.252,-0.091c0.623,0 1.017,0.055 1.181,0.165c0.165,0.109 0.248,0.323 0.248,0.64l0,0.513c0,0.635 0.006,1.572 0.018,2.811c0.012,1.239 0.018,2.182 0.018,2.829c0,0.635 -0.171,0.952 -0.513,0.952c-0.683,0 -1.702,-0.012 -3.057,-0.037c-1.355,-0.024 -2.375,-0.036 -3.058,-0.036l0,19.629c-0.086,0.366 -0.293,0.561 -0.623,0.586c-0.427,0 -1.05,-0.007 -1.867,-0.019c-0.818,-0.012 -1.441,-0.018 -1.868,-0.018c-0.025,0 -0.049,0.012 -0.073,0.037c-0.538,0 -1.291,-0.007 -2.262,-0.019c-0.97,-0.012 -1.693,-0.018 -2.17,-0.018l-1.098,0c-0.244,0.024 -0.598,0.037 -1.062,0.037l-0.733,-0.879c0,-1.856 0.061,-4.615 0.183,-8.277c0.123,-3.662 0.184,-6.421 0.184,-8.276c0,-0.086 -0.003,-0.226 -0.01,-0.421c-0.006,-0.196 -0.009,-0.354 -0.009,-0.476c0,-0.122 -0.009,-0.275 -0.027,-0.458c-0.019,-0.183 -0.049,-0.333 -0.092,-0.449c-0.042,-0.116 -0.094,-0.232 -0.155,-0.348c-0.061,-0.116 -0.144,-0.201 -0.248,-0.256c-0.103,-0.055 -0.228,-0.082 -0.375,-0.082l-5.237,0c-0.342,-0.098 -0.512,-0.94 -0.512,-2.527Z" style="fill:#04955d;fill-rule:nonzero;"/></g><g transform="matrix(1.70742,0,3.02512e-15,1.70742,-643.153,-998.767)"><path d="M379.294,633.283l-1.482,0l0,-6.262l1.482,0l0,2.641l2.067,-2.641l1.779,0l-2.417,2.938l2.605,3.324l-1.895,0l-2.13,-2.884l-0.009,0l0,2.884Z" style="fill:#04955d;fill-rule:nonzero;"/><path d="M388.521,630.157c0,-0.653 -0.14,-1.17 -0.422,-1.55c-0.281,-0.381 -0.674,-0.571 -1.177,-0.571c-0.509,0 -0.904,0.19 -1.186,0.571c-0.281,0.38 -0.422,0.897 -0.422,1.55c0,0.646 0.141,1.16 0.422,1.54c0.282,0.381 0.677,0.571 1.186,0.571c0.503,0 0.896,-0.19 1.177,-0.571c0.282,-0.38 0.422,-0.894 0.422,-1.54Zm1.519,0c0,1.006 -0.276,1.796 -0.827,2.371c-0.551,0.575 -1.315,0.863 -2.291,0.863c-0.982,0 -1.749,-0.288 -2.3,-0.863c-0.551,-0.575 -0.826,-1.365 -0.826,-2.371c0,-1.031 0.271,-1.829 0.813,-2.395c0.542,-0.566 1.313,-0.849 2.313,-0.849c0.994,0 1.763,0.283 2.305,0.849c0.542,0.566 0.813,1.364 0.813,2.395Z" style="fill:#04955d;fill-rule:nonzero;"/><path d="M392.573,627.021l0,5.157l2.534,0l0,1.105l-4.007,0.009l0,-6.271l1.473,0Z" style="fill:#04955d;fill-rule:nonzero;"/><path d="M397.272,629.896l0.503,0.018c0.33,0 0.589,-0.081 0.777,-0.243c0.189,-0.161 0.283,-0.389 0.283,-0.682c0,-0.282 -0.096,-0.501 -0.287,-0.656c-0.192,-0.156 -0.449,-0.234 -0.773,-0.234l-0.503,0l0,1.797Zm0,1.096l0,2.291l-1.473,0l0,-6.262l1.922,0c0.845,0 1.489,0.16 1.932,0.481c0.443,0.32 0.665,0.81 0.665,1.469c0,0.646 -0.21,1.145 -0.629,1.495c-0.419,0.351 -1.003,0.526 -1.752,0.526l-0.665,0Z" style="fill:#04955d;fill-rule:nonzero;"/><path d="M405.627,630.157c0,-0.653 -0.14,-1.17 -0.422,-1.55c-0.281,-0.381 -0.674,-0.571 -1.177,-0.571c-0.509,0 -0.904,0.19 -1.186,0.571c-0.281,0.38 -0.422,0.897 -0.422,1.55c0,0.646 0.141,1.16 0.422,1.54c0.282,0.381 0.677,0.571 1.186,0.571c0.503,0 0.896,-0.19 1.177,-0.571c0.282,-0.38 0.422,-0.894 0.422,-1.54Zm1.519,0c0,1.006 -0.276,1.796 -0.827,2.371c-0.551,0.575 -1.314,0.863 -2.291,0.863c-0.982,0 -1.749,-0.288 -2.3,-0.863c-0.551,-0.575 -0.826,-1.365 -0.826,-2.371c0,-1.031 0.271,-1.829 0.813,-2.395c0.542,-0.566 1.313,-0.849 2.313,-0.849c0.995,0 1.763,0.283 2.305,0.849c0.542,0.566 0.813,1.364 0.813,2.395Z" style="fill:#04955d;fill-rule:nonzero;"/><path d="M409.599,630.741l0,2.542l-1.474,0l0,-6.262l2.399,0c0.737,0 1.3,0.136 1.689,0.409c0.389,0.272 0.584,0.693 0.584,1.262c0,0.341 -0.102,0.653 -0.306,0.934c-0.203,0.282 -0.524,0.468 -0.961,0.557c0.264,0.072 0.457,0.24 0.58,0.504c0.122,0.263 0.229,0.518 0.319,0.763l0.036,0.081l0.673,1.752l-1.581,0l-0.629,-1.734c-0.078,-0.234 -0.182,-0.427 -0.314,-0.579c-0.132,-0.153 -0.321,-0.229 -0.566,-0.229l-0.449,0Zm0,-1.079l0.619,0c0.336,0 0.599,-0.064 0.791,-0.193c0.192,-0.129 0.288,-0.325 0.288,-0.588c0,-0.276 -0.095,-0.475 -0.283,-0.598c-0.189,-0.122 -0.469,-0.184 -0.84,-0.184l-0.575,0l0,1.563Z" style="fill:#04955d;fill-rule:nonzero;"/><path d="M416.588,633.283l-1.473,0l0,-5.148l-1.689,0l0,-1.114l4.851,0l0,1.114l-1.689,0l0,5.148Z" style="fill:#04955d;fill-rule:nonzero;"/><path d="M422.59,630.821l-0.845,-2.542l-0.88,2.542l1.725,0Zm2.497,2.462l-1.617,0l-0.503,-1.375l-2.488,0l-0.513,1.375l-1.509,0l2.426,-6.262l1.734,0l2.47,6.262Z" style="fill:#04955d;fill-rule:nonzero;"/><path d="M430.119,632.169l0,1.114l-4.708,0l0,-1.114l2.992,-4.034l-2.884,0l0,-1.114l4.555,0l0,1.123l-3.046,4.025l3.091,0Zm-2.273,-6.774c0.389,0 0.587,0.003 0.593,0.009c0.006,0.006 0.009,0.209 0.009,0.611c0,0.401 -0.003,0.605 -0.009,0.611c-0.006,0.006 -0.201,0.009 -0.584,0.009c-0.39,0 -0.586,-0.003 -0.589,-0.009c-0.003,-0.006 -0.004,-0.21 -0.004,-0.611c0,-0.402 0.001,-0.605 0.004,-0.611c0.003,-0.006 0.196,-0.009 0.58,-0.009Z" style="fill:#04955d;fill-rule:nonzero;"/><path d="M437.54,630.633l0,-3.612l1.473,0l0,3.809c0,0.857 -0.223,1.498 -0.669,1.923c-0.446,0.425 -1.113,0.638 -1.999,0.638c-0.869,0 -1.534,-0.205 -1.995,-0.616c-0.461,-0.41 -0.691,-1.013 -0.691,-1.81l0,-3.944l1.473,0l0,3.666c0,0.515 0.099,0.907 0.296,1.177c0.198,0.269 0.501,0.404 0.908,0.404c0.413,0 0.717,-0.139 0.912,-0.418c0.194,-0.278 0.292,-0.684 0.292,-1.217Z" style="fill:#04955d;fill-rule:nonzero;"/><path d="M441.726,627.021l0,5.157l2.534,0l0,1.105l-4.007,0.009l0,-6.271l1.473,0Z" style="fill:#04955d;fill-rule:nonzero;"/><path d="M449.498,630.157c0,-0.653 -0.141,-1.17 -0.422,-1.55c-0.282,-0.381 -0.674,-0.571 -1.177,-0.571c-0.509,0 -0.905,0.19 -1.186,0.571c-0.282,0.38 -0.423,0.897 -0.423,1.55c0,0.646 0.141,1.16 0.423,1.54c0.281,0.381 0.677,0.571 1.186,0.571c0.503,0 0.895,-0.19 1.177,-0.571c0.281,-0.38 0.422,-0.894 0.422,-1.54Zm1.518,0c0,1.006 -0.275,1.796 -0.826,2.371c-0.551,0.575 -1.315,0.863 -2.291,0.863c-0.983,0 -1.749,-0.288 -2.3,-0.863c-0.551,-0.575 -0.827,-1.365 -0.827,-2.371c0,-1.031 0.271,-1.829 0.813,-2.395c0.542,-0.566 1.313,-0.849 2.314,-0.849c0.994,0 1.762,0.283 2.304,0.849c0.542,0.566 0.813,1.364 0.813,2.395Z" style="fill:#04955d;fill-rule:nonzero;"/><path d="M454.691,633.283l-1.474,0l0,-5.148l-1.689,0l0,-1.114l4.852,0l0,1.114l-1.689,0l0,5.148Z" style="fill:#04955d;fill-rule:nonzero;"/><path d="M461.276,633.283l-4.15,0l0,-6.262l4.096,0l0,1.078l-2.623,0l0,1.429l2.435,0l0,1.078l-2.435,0l0,1.59l2.677,0l0,1.087Z" style="fill:#04955d;fill-rule:nonzero;"/><path d="M463.9,633.283l-1.483,0l0,-6.262l1.483,0l0,2.641l2.066,-2.641l1.779,0l-2.417,2.938l2.606,3.324l-1.896,0l-2.129,-2.884l-0.009,0l0,2.884Z" style="fill:#04955d;fill-rule:nonzero;"/><rect x="470.925" y="630.354" width="2.39" height="1.087" style="fill:#04955d;fill-rule:nonzero;"/><path d="M478.275,629.896l0.503,0.018c0.329,0 0.588,-0.081 0.777,-0.243c0.189,-0.161 0.283,-0.389 0.283,-0.682c0,-0.282 -0.096,-0.501 -0.288,-0.656c-0.191,-0.156 -0.449,-0.234 -0.772,-0.234l-0.503,0l0,1.797Zm0,1.096l0,2.291l-1.474,0l0,-6.262l1.923,0c0.844,0 1.488,0.16 1.931,0.481c0.444,0.32 0.665,0.81 0.665,1.469c0,0.646 -0.209,1.145 -0.629,1.495c-0.419,0.351 -1.003,0.526 -1.752,0.526l-0.664,0Z" style="fill:#389f6d;fill-rule:nonzero;"/><path d="M483.647,627.021l0,5.157l2.534,0l0,1.105l-4.007,0.009l0,-6.271l1.473,0Z" style="fill:#389f6d;fill-rule:nonzero;"/><path d="M490.511,630.821l-0.844,-2.542l-0.881,2.542l1.725,0Zm2.498,2.462l-1.617,0l-0.503,-1.375l-2.489,0l-0.512,1.375l-1.51,0l2.426,-6.262l1.734,0l2.471,6.262Z" style="fill:#389f6d;fill-rule:nonzero;"/><path d="M495.21,633.283l-1.482,0l0,-6.262l1.482,0l0,2.641l2.066,-2.641l1.779,0l-2.416,2.938l2.605,3.324l-1.896,0l-2.129,-2.884l-0.009,0l0,2.884Z" style="fill:#389f6d;fill-rule:nonzero;"/><path d="M503.53,630.821l-0.845,-2.542l-0.88,2.542l1.725,0Zm2.497,2.462l-1.617,0l-0.503,-1.375l-2.489,0l-0.512,1.375l-1.509,0l2.425,-6.262l1.734,0l2.471,6.262Z" style="fill:#389f6d;fill-rule:nonzero;"/><path d="M509.36,633.283l-1.473,0l0,-5.148l-1.689,0l0,-1.114l4.851,0l0,1.114l-1.689,0l0,5.148Z" style="fill:#389f6d;fill-rule:nonzero;"/><path d="M516.269,630.157c0,-0.653 -0.14,-1.17 -0.422,-1.55c-0.282,-0.381 -0.674,-0.571 -1.177,-0.571c-0.509,0 -0.904,0.19 -1.186,0.571c-0.281,0.38 -0.422,0.897 -0.422,1.55c0,0.646 0.141,1.16 0.422,1.54c0.282,0.381 0.677,0.571 1.186,0.571c0.503,0 0.895,-0.19 1.177,-0.571c0.282,-0.38 0.422,-0.894 0.422,-1.54Zm1.519,0c0,1.006 -0.276,1.796 -0.827,2.371c-0.551,0.575 -1.315,0.863 -2.291,0.863c-0.982,0 -1.749,-0.288 -2.3,-0.863c-0.551,-0.575 -0.826,-1.365 -0.826,-2.371c0,-1.031 0.271,-1.829 0.813,-2.395c0.542,-0.566 1.313,-0.849 2.313,-0.849c0.994,0 1.762,0.283 2.305,0.849c0.542,0.566 0.813,1.364 0.813,2.395Z" style="fill:#389f6d;fill-rule:nonzero;"/><path d="M525.739,627.021l1.428,0l-1.572,6.262l-1.824,0l-1.06,-4.914l-1.024,4.914l-1.833,0l-1.59,-6.262l1.527,0l1.024,4.869l0.989,-4.869l1.877,0l1.025,4.861l1.033,-4.861Z" style="fill:#389f6d;fill-rule:nonzero;"/><path d="M531.453,630.821l-0.845,-2.542l-0.88,2.542l1.725,0Zm2.497,2.462l-1.617,0l-0.503,-1.375l-2.489,0l-0.512,1.375l-1.509,0l2.426,-6.262l1.734,0l2.47,6.262Z" style="fill:#389f6d;fill-rule:nonzero;"/><path d="M538.784,631.486l0,-4.465l1.384,0l0,6.262l-1.788,0l-0.054,-0.099l-2.282,-4.33l0,4.429l-1.384,0l0,-6.262l1.833,0l2.291,4.465Z" style="fill:#389f6d;fill-rule:nonzero;"/><rect x="541.461" y="627.021" width="1.473" height="6.262" style="fill:#389f6d;fill-rule:nonzero;"/><path d="M548.361,633.283l-4.151,0l0,-6.262l4.097,0l0,1.078l-2.623,0l0,1.429l2.435,0l0,1.078l-2.435,0l0,1.59l2.677,0l0,1.087Z" style="fill:#389f6d;fill-rule:nonzero;"/></g></g></svg>